<?xml version="1.0" encoding="UTF-8"?>
<svg width="513px" height="139px" viewBox="0 0 513 139" version="1.1" xmlns="http://www.w3.org/2000/svg" xmlns:xlink="http://www.w3.org/1999/xlink">
    <!-- Generator: Sketch 41.1 (35376) - http://www.bohemiancoding.com/sketch -->
    <title>Group</title>
    <desc>Created with Sketch.</desc>
    <defs></defs>
    <g id="Page-1" stroke="none" stroke-width="1" fill="none" fill-rule="evenodd">
        <g id="Clipped" transform="translate(-83.000000, -160.000000)">
            <g id="Group" transform="translate(83.000000, 160.000000)">
                <path d="M110.988,58.076 C106.682,62.571 104.533,68.737 104.533,76.576 C104.533,84.414 106.682,90.544 110.988,94.962 C115.29,99.381 120.938,101.589 127.932,101.589 C132.312,101.589 136.289,100.571 139.861,98.534 C143.435,96.5 146.259,93.579 148.335,89.774 C150.41,85.972 151.447,81.532 151.447,76.461 C151.447,71.389 150.41,66.949 148.335,63.146 C146.259,59.342 143.435,56.424 139.861,54.387 C136.289,52.351 132.312,51.332 127.932,51.332 C120.938,51.332 115.29,53.58 110.988,58.076 Z M142.168,48.911 C146.508,51.985 149.602,56.174 151.447,61.474 L151.447,44.992 L159.4,44.992 L159.4,137.668 L151.447,137.668 L151.447,91.099 C149.602,96.481 146.49,100.765 142.111,103.953 C137.73,107.142 132.465,108.736 126.318,108.736 C120.555,108.736 115.406,107.411 110.872,104.76 C106.338,102.108 102.783,98.362 100.211,93.52 C97.634,88.679 96.348,83.031 96.348,76.576 C96.348,70.121 97.634,64.454 100.211,59.572 C102.783,54.694 106.338,50.928 110.872,48.277 C115.406,45.625 120.555,44.3 126.318,44.3 C132.543,44.3 137.825,45.838 142.168,48.911 Z" id="Shape" fill="#1A1F46"></path>
                <path d="M231.213,44.992 L231.213,107.93 L223.143,107.93 L223.143,92.368 C221.529,97.825 218.608,101.975 214.383,104.817 C210.156,107.661 205.315,109.082 199.859,109.082 C192.483,109.082 186.506,106.757 181.934,102.108 C177.361,97.459 175.076,90.638 175.076,81.647 L175.076,44.992 L183.145,44.992 L183.145,80.957 C183.145,87.873 184.875,93.158 188.332,96.805 C191.79,100.456 196.516,102.281 202.51,102.281 C208.811,102.281 213.824,100.263 217.553,96.228 C221.278,92.194 223.143,86.26 223.143,78.421 L223.143,44.992 L231.213,44.992 Z" id="Shape" fill="#1A1F46"></path>
                <polygon id="Shape" fill="#1A1F46" points="257.03 107.93 248.846 107.93 248.846 44.992 257.03 44.992"></polygon>
                <path d="M286.136,58.076 C281.871,62.571 279.739,68.699 279.739,76.461 C279.739,84.223 281.871,90.349 286.136,94.846 C290.401,99.341 296.067,101.589 303.137,101.589 C307.594,101.589 311.611,100.553 315.184,98.476 C318.757,96.403 321.561,93.463 323.598,89.659 C325.633,85.855 326.653,81.456 326.653,76.461 C326.653,71.467 325.633,67.066 323.598,63.262 C321.561,59.459 318.757,56.517 315.184,54.443 C311.611,52.369 307.594,51.332 303.137,51.332 C296.067,51.332 290.401,53.58 286.136,58.076 Z M317.373,49.141 C321.869,52.447 324.961,56.826 326.653,62.283 L326.653,44.992 L334.606,44.992 L334.606,109.427 C334.606,115.265 333.377,120.396 330.916,124.816 C328.457,129.234 325.039,132.654 320.658,135.074 C316.278,137.496 311.282,138.707 305.674,138.707 C297.449,138.707 290.707,136.725 285.444,132.77 C280.18,128.81 276.742,123.45 275.127,116.689 L283.197,116.689 C284.578,121.3 287.133,124.95 290.862,127.639 C294.588,130.329 299.371,131.673 305.213,131.673 C309.207,131.673 312.838,130.81 316.106,129.081 C319.369,127.352 321.945,124.797 323.828,121.416 C325.71,118.032 326.653,114.038 326.653,109.427 L326.653,90.639 C324.961,96.096 321.869,100.476 317.373,103.779 C312.878,107.085 307.441,108.736 301.063,108.736 C295.375,108.736 290.285,107.431 285.789,104.817 C281.294,102.205 277.797,98.46 275.301,93.579 C272.801,88.699 271.553,82.993 271.553,76.461 C271.553,69.851 272.801,64.109 275.301,59.227 C277.797,54.348 281.275,50.622 285.732,48.047 C290.188,45.472 295.299,44.185 301.063,44.185 C307.441,44.185 312.878,45.838 317.373,49.141 Z" id="Shape" fill="#1A1F46"></path>
                <path d="M363.709,58.076 C359.444,62.571 357.313,68.699 357.313,76.461 C357.313,84.223 359.444,90.349 363.709,94.846 C367.975,99.341 373.641,101.589 380.712,101.589 C385.168,101.589 389.184,100.553 392.757,98.476 C396.33,96.403 399.135,93.463 401.172,89.659 C403.207,85.855 404.227,81.456 404.227,76.461 C404.227,71.467 403.207,67.066 401.172,63.262 C399.135,59.459 396.33,56.517 392.757,54.443 C389.184,52.369 385.168,51.332 380.712,51.332 C373.641,51.332 367.975,53.58 363.709,58.076 Z M394.947,49.141 C399.442,52.447 402.535,56.826 404.227,62.283 L404.227,44.992 L412.18,44.992 L412.18,109.427 C412.18,115.265 410.949,120.396 408.491,124.816 C406.03,129.234 402.612,132.654 398.232,135.074 C393.852,137.496 388.855,138.707 383.248,138.707 C375.024,138.707 368.28,136.725 363.018,132.77 C357.754,128.81 354.314,123.45 352.701,116.689 L360.77,116.689 C362.153,121.3 364.707,124.95 368.436,127.639 C372.162,130.329 376.945,131.673 382.785,131.673 C386.781,131.673 390.412,130.81 393.68,129.081 C396.944,127.352 399.519,124.797 401.402,121.416 C403.284,118.032 404.227,114.038 404.227,109.427 L404.227,90.639 C402.535,96.096 399.442,100.476 394.947,103.779 C390.452,107.085 385.014,108.736 378.637,108.736 C372.949,108.736 367.859,107.431 363.363,104.817 C358.869,102.205 355.371,98.46 352.873,93.579 C350.376,88.699 349.128,82.993 349.128,76.461 C349.128,69.851 350.376,64.109 352.873,59.227 C355.371,54.348 358.848,50.622 363.307,48.047 C367.762,45.472 372.873,44.185 378.637,44.185 C385.014,44.185 390.452,45.838 394.947,49.141 Z" id="Shape" fill="#1A1F46"></path>
                <polygon id="Shape" fill="#1A1F46" points="437.883 107.93 429.699 107.93 429.699 22.631 437.883 22.631"></polygon>
                <path d="M472.002,53.291 C468.619,54.982 465.873,57.577 463.76,61.072 C461.646,64.568 460.512,68.93 460.359,74.154 L504.854,74.154 C505.16,69.008 504.315,64.665 502.317,61.13 C500.318,57.596 497.629,54.982 494.249,53.291 C490.865,51.602 487.178,50.756 483.184,50.756 C479.109,50.756 475.383,51.602 472.002,53.291 Z M497.131,97.786 C500.973,94.942 503.277,91.1 504.047,86.26 L512.576,86.26 C511.424,92.944 508.234,98.362 503.01,102.512 C497.783,106.661 491.174,108.736 483.184,108.736 C477.188,108.736 471.867,107.45 467.219,104.874 C462.568,102.301 458.937,98.574 456.326,93.692 C453.713,88.814 452.406,83.071 452.406,76.461 C452.406,69.852 453.713,64.109 456.326,59.228 C458.937,54.349 462.568,50.622 467.219,48.047 C471.867,45.473 477.188,44.186 483.184,44.186 C489.33,44.186 494.652,45.473 499.148,48.047 C503.643,50.622 507.061,54.061 509.406,58.364 C511.75,62.668 512.922,67.355 512.922,72.427 C512.922,74.577 512.768,76.539 512.461,78.306 L460.359,78.306 C460.436,83.607 461.531,88.044 463.645,91.619 C465.758,95.191 468.504,97.825 471.887,99.515 C475.268,101.206 478.918,102.05 482.836,102.05 C488.523,102.05 493.287,100.63 497.131,97.786 Z" id="Shape" fill="#1A1F46"></path>
                <path d="M55.376,6.964 C55.376,6.964 55.496,7.015 55.723,7.11 C55.949,7.199 56.275,7.36 56.703,7.51 C56.914,7.584 57.15,7.668 57.405,7.758 C57.665,7.829 57.946,7.906 58.248,7.988 C58.548,8.067 58.877,8.1 59.215,8.162 C59.559,8.174 59.914,8.233 60.288,8.207 C61.035,8.211 61.83,8.022 62.652,7.783 C63.477,7.536 64.316,7.136 65.191,6.744 C66.929,5.904 68.787,4.947 70.684,4.061 C71.633,3.611 72.77,3.251 73.882,3.209 C75,3.151 76.097,3.432 77.045,3.853 C78.005,4.273 78.805,4.881 79.49,5.506 C80.178,6.129 80.74,6.797 81.215,7.438 C82.168,8.719 82.766,9.899 83.148,10.733 C83.526,11.569 83.684,12.07 83.684,12.07 C83.684,12.07 83.434,11.609 82.941,10.844 C82.447,10.082 81.713,9.01 80.691,7.865 C79.666,6.742 78.334,5.495 76.637,4.807 C75.793,4.465 74.868,4.297 73.936,4.347 C72.99,4.402 72.107,4.686 71.18,5.13 C70.236,5.559 69.299,6.002 68.372,6.443 C67.449,6.887 66.521,7.298 65.613,7.69 C64.697,8.068 63.796,8.416 62.887,8.627 C61.983,8.838 61.092,8.961 60.273,8.88 C59.865,8.868 59.48,8.779 59.117,8.72 C58.764,8.613 58.423,8.537 58.119,8.419 C57.818,8.295 57.535,8.192 57.28,8.074 C57.033,7.945 56.805,7.826 56.6,7.719 C56.188,7.511 55.905,7.29 55.692,7.166 C55.485,7.034 55.376,6.964 55.376,6.964 Z" id="Shape" fill="#BE202E"></path>
                <path d="M37.766,28.982 C37.766,28.982 38.122,28.552 38.711,27.793 C38.998,27.41 39.328,26.931 39.616,26.349 C39.905,25.764 40.114,25.06 40.219,24.275 C40.317,23.488 40.327,22.621 40.215,21.706 C40.118,20.791 39.92,19.832 39.675,18.847 C39.612,18.601 39.547,18.353 39.481,18.103 L39.424,17.874 L39.385,17.679 L39.307,17.289 C39.192,16.781 39.124,16.201 39.062,15.641 C38.959,14.522 38.977,13.359 39.174,12.208 C39.387,11.063 39.787,9.925 40.435,8.949 C41.069,7.962 41.934,7.166 42.859,6.573 C43.791,5.984 44.791,5.619 45.75,5.392 C46.711,5.16 47.639,5.084 48.489,5.086 C49.338,5.085 50.111,5.171 50.784,5.291 C51.457,5.417 52.033,5.562 52.496,5.719 C52.961,5.867 53.315,6.013 53.551,6.121 C53.789,6.226 53.915,6.283 53.915,6.283 C53.915,6.283 53.782,6.248 53.531,6.181 C53.283,6.111 52.909,6.035 52.439,5.947 C51.969,5.853 51.389,5.793 50.729,5.738 C50.067,5.697 49.321,5.698 48.516,5.763 C46.916,5.902 45.043,6.347 43.428,7.439 C42.628,7.99 41.936,8.718 41.395,9.561 C40.848,10.405 40.514,11.397 40.332,12.418 C40.145,13.44 40.113,14.502 40.196,15.545 C40.254,16.064 40.287,16.559 40.385,17.095 L40.448,17.489 L40.479,17.683 L40.481,17.696 C40.491,17.738 40.47,17.653 40.475,17.666 L40.479,17.69 L40.491,17.74 L40.512,17.837 C40.57,18.099 40.627,18.358 40.684,18.616 C40.809,19.127 40.874,19.647 40.958,20.147 C41.008,20.656 41.079,21.15 41.09,21.639 C41.156,22.613 41.064,23.554 40.881,24.395 C40.702,25.239 40.385,25.98 40.009,26.566 C39.637,27.157 39.227,27.597 38.889,27.947 C38.544,28.293 38.254,28.541 38.063,28.715 C37.87,28.888 37.766,28.982 37.766,28.982 Z" id="Shape" fill="#BE202E"></path>
                <path d="M53.027,52.264 C53.027,52.264 52.972,52.156 52.869,51.95 C52.759,51.748 52.625,51.433 52.399,51.076 C52.194,50.707 51.904,50.284 51.545,49.828 C51.346,49.616 51.167,49.367 50.916,49.16 C50.799,49.051 50.678,48.939 50.555,48.825 C50.422,48.722 50.285,48.618 50.144,48.511 C49.574,48.1 48.91,47.723 48.157,47.399 C47.414,47.064 46.59,46.778 45.731,46.479 C44.865,46.19 43.969,45.891 43.06,45.588 C42.146,45.278 41.219,44.955 40.294,44.623 C39.779,44.402 39.384,44.233 38.922,44.008 L38.238,43.602 C38.009,43.469 37.787,43.33 37.593,43.16 L36.995,42.68 C36.804,42.51 36.642,42.309 36.467,42.127 C36.101,41.774 35.856,41.327 35.57,40.93 C35.096,40.069 34.757,39.172 34.632,38.293 C34.545,37.86 34.534,37.428 34.506,37.018 C34.529,36.606 34.506,36.208 34.567,35.832 C34.611,35.456 34.648,35.098 34.734,34.763 C34.799,34.426 34.881,34.114 34.976,33.824 C35.058,33.532 35.147,33.262 35.252,33.02 C35.346,32.776 35.432,32.553 35.531,32.36 C35.709,31.963 35.879,31.669 36,31.473 C36.115,31.274 36.177,31.168 36.177,31.168 C36.177,31.168 36.135,31.284 36.056,31.5 C36.017,31.608 35.97,31.741 35.914,31.896 C35.865,32.055 35.812,32.237 35.751,32.442 C35.683,32.643 35.634,32.872 35.578,33.121 C35.516,33.368 35.457,33.636 35.416,33.928 C35.359,34.215 35.318,34.523 35.297,34.849 C35.256,35.172 35.248,35.515 35.244,35.869 C35.217,36.225 35.279,36.593 35.294,36.971 C35.357,37.344 35.386,37.735 35.494,38.118 C35.661,38.901 36.027,39.653 36.453,40.383 C36.945,41.076 37.533,41.733 38.273,42.248 C38.444,42.397 38.633,42.51 38.827,42.616 L39.398,42.951 C39.811,43.149 40.321,43.356 40.703,43.518 C41.614,43.86 42.528,44.193 43.433,44.514 C44.34,44.835 45.226,45.17 46.09,45.507 C46.953,45.838 47.779,46.203 48.543,46.612 C49.312,47 49.998,47.481 50.569,47.988 C51.155,48.483 51.573,49.057 51.909,49.567 C52.232,50.088 52.457,50.57 52.611,50.979 C52.79,51.375 52.853,51.707 52.925,51.926 C52.992,52.147 53.027,52.264 53.027,52.264 Z" id="Shape" fill="#1A1F46"></path>
                <path d="M71.977,56.722 C71.977,56.722 71.809,57.049 71.501,57.611 C71.34,57.887 71.125,58.217 70.874,58.594 C70.6,58.951 70.311,59.377 69.921,59.782 C69.737,59.994 69.536,60.205 69.311,60.412 C69.096,60.629 68.854,60.832 68.594,61.03 C68.088,61.442 67.492,61.809 66.838,62.121 C66.176,62.414 65.451,62.655 64.686,62.765 C63.922,62.871 63.131,62.855 62.358,62.743 C61.586,62.618 60.838,62.382 60.148,62.071 C59.454,61.765 58.819,61.369 58.246,60.95 C57.101,60.098 56.205,59.116 55.563,58.2 C55.231,57.748 54.973,57.306 54.758,56.907 C54.541,56.511 54.376,56.154 54.258,55.854 C54.128,55.557 54.055,55.315 54.001,55.151 C53.948,54.987 53.919,54.901 53.919,54.901 C53.919,54.901 53.968,54.978 54.059,55.123 C54.147,55.271 54.286,55.48 54.464,55.742 C54.637,56.007 54.87,56.315 55.137,56.662 C55.407,57.006 55.723,57.383 56.088,57.772 C56.451,58.164 56.87,58.56 57.325,58.96 C57.78,59.362 58.297,59.731 58.836,60.096 C59.381,60.459 59.985,60.754 60.6,61.025 C61.219,61.293 61.876,61.482 62.543,61.578 C63.207,61.689 63.883,61.717 64.541,61.637 C65.194,61.545 65.834,61.401 66.432,61.168 C67.018,60.916 67.588,60.651 68.084,60.315 C68.211,60.233 68.336,60.153 68.458,60.073 C68.575,59.985 68.691,59.898 68.803,59.813 C69.039,59.651 69.253,59.476 69.452,59.298 C69.866,58.961 70.207,58.606 70.53,58.308 C70.822,57.985 71.098,57.717 71.31,57.478 C71.727,56.993 71.977,56.722 71.977,56.722 Z" id="Shape" fill="#1A1F46"></path>
                <path d="M42.395,45.984 C42.395,45.984 42.401,46.49 42.411,47.376 C42.417,47.816 42.438,48.351 42.491,48.954 C42.56,49.55 42.645,50.234 42.908,50.881 C42.982,51.025 43.057,51.171 43.133,51.322 C43.249,51.481 43.369,51.644 43.488,51.808 C43.744,52.09 43.98,52.336 44.319,52.569 C44.962,53.029 45.77,53.329 46.639,53.515 C47.51,53.703 48.451,53.752 49.41,53.724 C50.37,53.693 51.348,53.601 52.319,53.423 C53.293,53.261 54.261,53.06 55.206,52.8 L55.558,52.706 L55.938,52.611 C56.177,52.556 56.416,52.502 56.654,52.449 C57.147,52.364 57.674,52.271 58.165,52.248 C59.153,52.152 60.123,52.27 61.01,52.46 C61.903,52.645 62.7,52.99 63.385,53.367 C64.08,53.736 64.648,54.174 65.123,54.585 C65.602,54.99 65.971,55.394 66.267,55.726 C66.565,56.058 66.776,56.338 66.92,56.527 C67.061,56.718 67.138,56.82 67.138,56.82 C67.138,56.82 66.776,56.463 66.104,55.892 C65.767,55.611 65.352,55.279 64.849,54.943 C64.346,54.607 63.76,54.259 63.087,53.974 C62.415,53.687 61.662,53.443 60.844,53.324 C60.027,53.209 59.153,53.167 58.255,53.283 C58.029,53.295 57.811,53.339 57.59,53.38 C57.367,53.427 57.156,53.445 56.918,53.513 C56.453,53.64 55.981,53.768 55.505,53.898 C54.535,54.179 53.529,54.406 52.514,54.586 C51.495,54.757 50.456,54.843 49.427,54.861 C48.401,54.884 47.374,54.765 46.404,54.525 C45.433,54.285 44.515,53.863 43.783,53.263 C43.422,52.979 43.083,52.597 42.833,52.242 C42.729,52.066 42.627,51.894 42.526,51.724 C42.413,51.477 42.352,51.312 42.274,51.109 C42.033,50.319 42.039,49.595 42.042,48.968 C42.059,48.341 42.122,47.804 42.178,47.362 C42.232,46.92 42.295,46.578 42.333,46.343 C42.375,46.109 42.395,45.984 42.395,45.984 Z" id="Shape" fill="#1A1F46"></path>
                <path d="M38.689,15.592 C38.689,15.592 38.176,15.838 37.335,16.339 C36.501,16.843 35.31,17.617 34.241,18.852 C33.713,19.469 33.237,20.211 32.918,21.059 C32.6,21.901 32.463,22.882 32.526,23.83 C32.549,24.094 32.571,24.36 32.595,24.626 C32.608,24.903 32.705,25.102 32.752,25.346 L32.836,25.696 C32.868,25.813 32.933,25.924 32.979,26.039 C33.088,26.26 33.146,26.51 33.292,26.715 C33.766,27.594 34.551,28.292 35.458,28.856 C36.356,29.436 37.365,29.903 38.364,30.423 C39.362,30.938 40.368,31.545 41.153,32.409 C41.553,32.838 41.846,33.334 42.079,33.868 C42.167,34.108 42.254,34.343 42.34,34.576 L42.465,34.926 L42.561,35.301 C42.687,35.797 42.817,36.278 42.865,36.74 C42.897,36.972 42.928,37.199 42.96,37.423 C42.981,37.647 42.988,37.867 43.002,38.082 C43.034,38.512 43.052,38.923 43.037,39.315 C43.03,39.704 43.03,40.074 42.999,40.42 C42.961,41.113 42.891,41.71 42.829,42.201 C42.778,42.694 42.699,43.076 42.664,43.338 C42.622,43.6 42.599,43.74 42.599,43.74 C42.599,43.74 42.598,43.175 42.595,42.188 C42.592,41.696 42.58,41.099 42.546,40.417 C42.542,40.077 42.502,39.716 42.467,39.337 C42.444,38.957 42.397,38.562 42.33,38.153 C42.298,37.947 42.274,37.738 42.235,37.526 C42.188,37.317 42.139,37.105 42.089,36.887 C42.008,36.447 41.868,36.024 41.729,35.59 L41.627,35.261 L41.481,34.922 C41.381,34.695 41.28,34.463 41.178,34.231 C40.969,33.856 40.733,33.444 40.391,33.115 C39.733,32.428 38.811,31.931 37.845,31.436 C36.874,30.943 35.825,30.479 34.821,29.846 C33.829,29.216 32.875,28.362 32.299,27.27 C32.129,27.014 32.051,26.717 31.928,26.442 C31.877,26.299 31.811,26.166 31.776,26.018 L31.681,25.571 C31.631,25.28 31.536,24.965 31.532,24.703 C31.519,24.435 31.506,24.168 31.493,23.905 C31.449,22.746 31.688,21.674 32.107,20.726 C32.52,19.779 33.124,19.004 33.749,18.393 C34.374,17.774 35.028,17.315 35.623,16.948 C36.223,16.59 36.77,16.324 37.228,16.131 C37.684,15.933 38.054,15.803 38.304,15.721 C38.555,15.637 38.689,15.592 38.689,15.592 Z" id="Shape" fill="#BE202E"></path>
                <path d="M68.891,4.169 C68.891,4.169 68.467,3.819 67.707,3.242 C67.329,2.951 66.859,2.615 66.315,2.247 C65.763,1.899 65.121,1.514 64.399,1.279 C64.32,1.258 64.196,1.215 64.15,1.205 C64.047,1.189 63.942,1.172 63.836,1.155 L63.518,1.106 C63.416,1.096 63.325,1.106 63.227,1.106 C63.035,1.106 62.841,1.098 62.631,1.139 C62.424,1.166 62.215,1.19 62.008,1.261 C61.173,1.481 60.354,1.944 59.578,2.527 C58.801,3.113 58.086,3.85 57.409,4.643 C56.735,5.439 56.103,6.299 55.526,7.201 C55.242,7.653 54.946,8.1 54.684,8.566 L54.266,9.281 L53.842,9.971 C53.214,10.925 52.437,11.764 51.577,12.421 C50.714,13.086 49.748,13.54 48.811,13.82 C47.873,14.111 46.964,14.236 46.137,14.315 C45.31,14.395 44.557,14.418 43.897,14.459 C43.241,14.498 42.672,14.586 42.193,14.639 C41.252,14.8 40.715,14.893 40.715,14.893 C40.715,14.893 41.238,14.717 42.151,14.407 C42.612,14.293 43.176,14.12 43.843,14.01 C44.498,13.901 45.238,13.777 46.045,13.644 C46.839,13.496 47.684,13.301 48.527,12.988 C49.37,12.676 50.192,12.212 50.936,11.604 C51.686,10.992 52.314,10.218 52.87,9.379 L53.285,8.684 L53.68,7.988 C53.944,7.502 54.245,7.033 54.539,6.56 C55.15,5.627 55.825,4.732 56.551,3.898 C57.274,3.059 58.09,2.313 58.968,1.691 C59.842,1.07 60.816,0.604 61.813,0.406 C62.059,0.342 62.311,0.324 62.559,0.31 C62.799,0.279 63.056,0.295 63.307,0.324 C63.428,0.336 63.557,0.344 63.669,0.363 L63.983,0.441 C64.086,0.467 64.188,0.494 64.289,0.519 C64.446,0.565 64.513,0.604 64.627,0.646 C65.444,0.985 66.051,1.465 66.58,1.887 C67.1,2.32 67.522,2.726 67.861,3.067 C68.204,3.407 68.454,3.688 68.627,3.877 C68.799,4.067 68.891,4.169 68.891,4.169 Z" id="Shape" fill="#BE202E"></path>
                <path d="M86.236,11.601 C86.236,11.601 86.026,11.807 85.609,12.114 C85.4,12.265 85.142,12.449 84.829,12.626 C84.517,12.811 84.158,13.01 83.741,13.18 C83.33,13.362 82.867,13.532 82.357,13.65 C81.849,13.779 81.295,13.866 80.71,13.874 C80.418,13.891 80.119,13.848 79.814,13.834 C79.512,13.799 79.209,13.727 78.904,13.662 C78.609,13.553 78.304,13.457 78.015,13.329 C77.732,13.172 77.457,13.047 77.166,12.858 L76.465,12.342 C76.23,12.148 75.998,11.954 75.767,11.76 C75.325,11.372 74.918,10.971 74.535,10.576 C73.763,9.79 73.099,9.016 72.543,8.34 C71.429,6.995 70.762,6.026 70.762,6.026 C70.762,6.026 71.715,6.719 73.027,7.868 C73.69,8.433 74.439,9.116 75.25,9.823 C75.644,10.188 76.086,10.525 76.501,10.889 C76.711,11.059 76.924,11.229 77.137,11.399 L77.846,11.897 C78.039,12.026 78.291,12.151 78.508,12.282 C78.743,12.391 78.989,12.473 79.226,12.572 C79.479,12.623 79.723,12.703 79.972,12.752 C80.226,12.778 80.474,12.838 80.728,12.84 C81.23,12.858 81.726,12.852 82.197,12.788 C82.431,12.759 82.662,12.725 82.882,12.678 C83.105,12.64 83.321,12.598 83.525,12.541 C83.935,12.441 84.312,12.329 84.641,12.219 C84.972,12.108 85.261,12.002 85.496,11.911 C85.968,11.727 86.236,11.601 86.236,11.601 Z" id="Shape" fill="#BE202E"></path>
                <polygon id="Shape" fill="#BE202E" points="79.569 13.301 79.033 13.056 80.703 9.414 81.239 9.66"></polygon>
                <polygon id="Shape" fill="#BE202E" points="76.837 11.381 76.299 11.14 78.174 6.976 78.711 7.218"></polygon>
                <polygon id="Shape" fill="#BE202E" points="74.084 9.657 73.547 9.416 75.422 5.252 75.96 5.493"></polygon>
                <polygon id="Shape" fill="#BE202E" points="65.701 5.133 64.972 1.357 65.553 1.244 66.279 5.022"></polygon>
                <polygon id="Shape" fill="#BE202E" points="59.355 7.142 58.627 2.438 59.209 2.348 59.937 7.052"></polygon>
                <polygon id="Shape" fill="#BE202E" points="62.682 6.599 61.72 0.852 62.303 0.754 63.264 6.501"></polygon>
                <polygon id="Shape" fill="#BE202E" points="51.733 11.504 49.518 7.233 50.042 6.961 52.257 11.233"></polygon>
                <polygon id="Shape" fill="#BE202E" points="49.715 13.063 46.285 7.247 46.795 6.948 50.223 12.764"></polygon>
                <polygon id="Shape" fill="#BE202E" points="47.273 14.226 43.844 8.409 44.351 8.11 47.781 13.926"></polygon>
                <polygon id="Shape" fill="#BE202E" points="43.843 14.422 42.059 11.315 42.571 11.021 44.354 14.129"></polygon>
                <polygon id="Shape" fill="#BE202E" points="38.559 19.368 33.705 18.996 33.748 18.408 38.604 18.781"></polygon>
                <polygon id="Shape" fill="#BE202E" points="38.565 22.954 32.227 22.582 32.261 21.993 38.599 22.366"></polygon>
                <polygon id="Shape" fill="#BE202E" points="37.455 26.387 32.224 26.014 32.265 25.427 37.498 25.799"></polygon>
                <polygon id="Shape" fill="#BE202E" points="37.036 34.636 36.885 34.067 41.094 32.942 41.246 33.511"></polygon>
                <polygon id="Shape" fill="#BE202E" points="38.658 40.75 38.506 40.18 42.716 39.055 42.867 39.623"></polygon>
                <polygon id="Shape" fill="#BE202E" points="37.048 38.022 36.874 37.46 42.242 35.816 42.414 36.38"></polygon>
                <polygon id="Shape" fill="#1A1F46" points="42.52 49.756 42.083 49.36 44.405 46.801 44.842 47.197"></polygon>
                <polygon id="Shape" fill="#1A1F46" points="48.01 54.408 47.573 54.015 50.371 50.891 50.811 51.285"></polygon>
                <polygon id="Shape" fill="#1A1F46" points="44.279 53.13 43.842 52.735 47.793 48.35 48.231 48.744"></polygon>
                <polygon id="Shape" fill="#1A1F46" points="57.65 57.828 57.137 57.538 59.987 52.505 60.5 52.795"></polygon>
                <polygon id="Shape" fill="#1A1F46" points="65.713 59.633 65.17 59.405 66.594 56.023 67.138 56.252"></polygon>
                <polygon id="Shape" fill="#1A1F46" points="61.195 60.124 60.666 59.863 63.514 54.081 64.044 54.342"></polygon>
                <path d="M56.522,19.369 C56.522,21.298 54.958,22.862 53.028,22.862 C51.098,22.862 49.534,21.298 49.534,19.369 C49.534,17.439 51.098,15.874 53.028,15.874 C54.958,15.874 56.522,17.439 56.522,19.369 Z" id="Shape" fill="#BE202E"></path>
                <path d="M258.766,28.984 C258.766,32.201 256.157,34.81 252.938,34.81 C249.72,34.81 247.111,32.201 247.111,28.984 C247.111,25.766 249.72,23.155 252.938,23.155 C256.157,23.155 258.766,25.766 258.766,28.984 Z" id="Shape" fill="#BE202E"></path>
                <path d="M47.954,28.051 C47.954,29.143 47.071,30.028 45.979,30.028 C44.888,30.028 44.003,29.143 44.003,28.051 C44.003,26.96 44.888,26.075 45.979,26.075 C47.071,26.075 47.954,26.96 47.954,28.051 Z" id="Shape" fill="#1A1F46"></path>
                <path d="M63.622,15.04 C63.622,16.132 62.736,17.017 61.644,17.017 C60.554,17.017 59.669,16.132 59.669,15.04 C59.669,13.949 60.554,13.063 61.644,13.063 C62.736,13.063 63.622,13.949 63.622,15.04 Z" id="Shape" fill="#1A1F46"></path>
                <path d="M53.813,36.919 C53.813,38.443 52.577,39.682 51.051,39.682 C49.526,39.682 48.29,38.443 48.29,36.919 C48.29,35.395 49.526,34.158 51.051,34.158 C52.577,34.158 53.813,35.395 53.813,36.919 Z" id="Shape" fill="#BE202E"></path>
                <path d="M66.926,56.598 C67.547,57.202 68.436,58.287 68.508,59.633 C68.508,59.633 68.093,60.408 67.115,60.949 C74.944,64.618 80.382,72.57 80.382,81.774 C80.382,89.521 76.522,96.373 70.63,100.538 L70.646,100.543 C62,105.833 55.848,106.024 55.848,106.024 L55.666,109.018 C55.666,109.018 70.416,109.416 77.123,103.636 C77.147,103.616 77.168,103.595 77.192,103.575 C77.379,103.41 77.565,103.243 77.744,103.068 C83.362,97.7 86.865,90.139 86.865,81.774 C86.865,65.522 73.645,52.301 57.395,52.301 L57.395,53.417 C62.305,52.688 65.749,55.184 66.926,56.598 Z" id="Shape" fill="#1A1F46"></path>
                <polygon id="Shape" fill="#1A1F46" points="56.084 109.018 43.455 109.018 38.031 93.115 34.42 102.858 27.014 80.039 23.569 89.341 19.9 79.926 12.078 103.978 5.404 72.447 3.229 81.882 0.307 81.208 5.529 58.55 12.691 92.39 19.645 71.01 23.498 80.896 27.201 70.897 34.607 93.719 38.149 84.165 45.602 106.018 56.084 106.018"></polygon>
            </g>
        </g>
    </g>
</svg>